<mxfile host="app.diagrams.net" modified="2021-03-23T08:39:51.321Z" agent="5.0 (Macintosh; Intel Mac OS X 10_15_6) AppleWebKit/605.1.15 (KHTML, like Gecko) Version/14.0.3 Safari/605.1.15" etag="zONgrc4bmVTrY8NeS8f7" version="14.4.9" type="github">
  <diagram id="kgpKYQtTHZ0yAKxKKP6v" name="Page-1">
    <mxGraphModel dx="1261" dy="860" grid="1" gridSize="10" guides="1" tooltips="1" connect="1" arrows="1" fold="1" page="1" pageScale="1" pageWidth="850" pageHeight="1100" math="0" shadow="0">
      <root>
        <mxCell id="0" />
        <mxCell id="1" parent="0" />
        <mxCell id="3nuBFxr9cyL0pnOWT2aG-1" value=":StocksApp" style="shape=umlLifeline;perimeter=lifelinePerimeter;container=1;collapsible=0;recursiveResize=0;rounded=0;shadow=0;strokeWidth=1;" parent="1" vertex="1">
          <mxGeometry x="110" y="80" width="100" height="1120" as="geometry" />
        </mxCell>
        <mxCell id="3nuBFxr9cyL0pnOWT2aG-2" value="" style="points=[];perimeter=orthogonalPerimeter;rounded=0;shadow=0;strokeWidth=1;" parent="3nuBFxr9cyL0pnOWT2aG-1" vertex="1">
          <mxGeometry x="45" y="70" width="10" height="1000" as="geometry" />
        </mxCell>
        <mxCell id="3nuBFxr9cyL0pnOWT2aG-5" value=":MainScreen" style="shape=umlLifeline;perimeter=lifelinePerimeter;container=1;collapsible=0;recursiveResize=0;rounded=0;shadow=0;strokeWidth=1;" parent="1" vertex="1">
          <mxGeometry x="300" y="80" width="100" height="1120" as="geometry" />
        </mxCell>
        <mxCell id="3nuBFxr9cyL0pnOWT2aG-6" value="" style="points=[];perimeter=orthogonalPerimeter;rounded=0;shadow=0;strokeWidth=1;" parent="3nuBFxr9cyL0pnOWT2aG-5" vertex="1">
          <mxGeometry x="45" y="80" width="10" height="580" as="geometry" />
        </mxCell>
        <mxCell id="3nuBFxr9cyL0pnOWT2aG-8" value="Init MainScreen" style="verticalAlign=bottom;endArrow=block;entryX=0;entryY=0;shadow=0;strokeWidth=1;" parent="1" source="3nuBFxr9cyL0pnOWT2aG-2" target="3nuBFxr9cyL0pnOWT2aG-6" edge="1">
          <mxGeometry relative="1" as="geometry">
            <mxPoint x="275" y="160" as="sourcePoint" />
          </mxGeometry>
        </mxCell>
        <mxCell id="zRIpVrKAjMLuEBCQQrDN-12" style="edgeStyle=orthogonalEdgeStyle;rounded=0;orthogonalLoop=1;jettySize=auto;html=1;" edge="1" parent="1" target="3nuBFxr9cyL0pnOWT2aG-1">
          <mxGeometry relative="1" as="geometry">
            <mxPoint x="72" y="230" as="sourcePoint" />
            <Array as="points">
              <mxPoint x="130" y="230" />
              <mxPoint x="130" y="230" />
            </Array>
          </mxGeometry>
        </mxCell>
        <mxCell id="zRIpVrKAjMLuEBCQQrDN-9" value="User" style="shape=umlActor;html=1;verticalLabelPosition=bottom;verticalAlign=top;align=center;" vertex="1" parent="1">
          <mxGeometry x="50" y="60" width="30" height="60" as="geometry" />
        </mxCell>
        <mxCell id="zRIpVrKAjMLuEBCQQrDN-13" style="edgeStyle=orthogonalEdgeStyle;rounded=0;orthogonalLoop=1;jettySize=auto;html=1;" edge="1" parent="1" target="3nuBFxr9cyL0pnOWT2aG-5">
          <mxGeometry relative="1" as="geometry">
            <mxPoint x="170" y="240" as="sourcePoint" />
            <Array as="points">
              <mxPoint x="290" y="240" />
              <mxPoint x="290" y="240" />
            </Array>
          </mxGeometry>
        </mxCell>
        <mxCell id="zRIpVrKAjMLuEBCQQrDN-14" value="Selects ticker" style="text;html=1;align=center;verticalAlign=middle;resizable=0;points=[];autosize=1;" vertex="1" parent="1">
          <mxGeometry x="70" y="205" width="90" height="20" as="geometry" />
        </mxCell>
        <mxCell id="zRIpVrKAjMLuEBCQQrDN-15" value="Send ticker value" style="text;html=1;align=center;verticalAlign=middle;resizable=0;points=[];autosize=1;" vertex="1" parent="1">
          <mxGeometry x="200" y="220" width="110" height="20" as="geometry" />
        </mxCell>
        <mxCell id="zRIpVrKAjMLuEBCQQrDN-16" style="edgeStyle=orthogonalEdgeStyle;rounded=0;orthogonalLoop=1;jettySize=auto;html=1;" edge="1" parent="1" source="3nuBFxr9cyL0pnOWT2aG-6">
          <mxGeometry relative="1" as="geometry">
            <mxPoint x="164" y="280" as="targetPoint" />
            <Array as="points">
              <mxPoint x="164" y="280" />
            </Array>
          </mxGeometry>
        </mxCell>
        <mxCell id="zRIpVrKAjMLuEBCQQrDN-19" value=":SelectForm" style="shape=umlLifeline;perimeter=lifelinePerimeter;container=1;collapsible=0;recursiveResize=0;rounded=0;shadow=0;strokeWidth=1;" vertex="1" parent="1">
          <mxGeometry x="450" y="80" width="100" height="1120" as="geometry" />
        </mxCell>
        <mxCell id="zRIpVrKAjMLuEBCQQrDN-20" value="" style="points=[];perimeter=orthogonalPerimeter;rounded=0;shadow=0;strokeWidth=1;" vertex="1" parent="zRIpVrKAjMLuEBCQQrDN-19">
          <mxGeometry x="45" y="150" width="10" height="60" as="geometry" />
        </mxCell>
        <mxCell id="zRIpVrKAjMLuEBCQQrDN-21" style="edgeStyle=orthogonalEdgeStyle;rounded=0;orthogonalLoop=1;jettySize=auto;html=1;" edge="1" parent="1" source="3nuBFxr9cyL0pnOWT2aG-6">
          <mxGeometry relative="1" as="geometry">
            <mxPoint x="496" y="240" as="targetPoint" />
            <Array as="points">
              <mxPoint x="496" y="240" />
            </Array>
          </mxGeometry>
        </mxCell>
        <mxCell id="zRIpVrKAjMLuEBCQQrDN-22" value="&lt;font style=&quot;font-size: 11px&quot;&gt;_handleTickerSubmit(ticker)&lt;/font&gt;" style="text;html=1;align=center;verticalAlign=middle;resizable=0;points=[];autosize=1;" vertex="1" parent="1">
          <mxGeometry x="350" y="220" width="150" height="20" as="geometry" />
        </mxCell>
        <mxCell id="zRIpVrKAjMLuEBCQQrDN-27" value="_tickerField = ticker" style="text;html=1;align=center;verticalAlign=middle;resizable=0;points=[];autosize=1;" vertex="1" parent="1">
          <mxGeometry x="360" y="250" width="120" height="20" as="geometry" />
        </mxCell>
        <mxCell id="zRIpVrKAjMLuEBCQQrDN-28" style="edgeStyle=orthogonalEdgeStyle;rounded=0;orthogonalLoop=1;jettySize=auto;html=1;" edge="1" parent="1" source="zRIpVrKAjMLuEBCQQrDN-20">
          <mxGeometry relative="1" as="geometry">
            <mxPoint x="358" y="275" as="targetPoint" />
            <Array as="points">
              <mxPoint x="358" y="275" />
            </Array>
          </mxGeometry>
        </mxCell>
        <mxCell id="zRIpVrKAjMLuEBCQQrDN-29" value="Ticker SelectForm&lt;br&gt;&amp;nbsp;field value is set" style="text;html=1;align=center;verticalAlign=middle;resizable=0;points=[];autosize=1;" vertex="1" parent="1">
          <mxGeometry x="195" y="250" width="110" height="30" as="geometry" />
        </mxCell>
        <mxCell id="zRIpVrKAjMLuEBCQQrDN-32" style="edgeStyle=orthogonalEdgeStyle;rounded=0;orthogonalLoop=1;jettySize=auto;html=1;" edge="1" parent="1" source="zRIpVrKAjMLuEBCQQrDN-30">
          <mxGeometry relative="1" as="geometry">
            <mxPoint x="156" y="302" as="targetPoint" />
            <Array as="points">
              <mxPoint x="90" y="302" />
              <mxPoint x="90" y="302" />
            </Array>
          </mxGeometry>
        </mxCell>
        <mxCell id="zRIpVrKAjMLuEBCQQrDN-44" style="edgeStyle=orthogonalEdgeStyle;rounded=0;orthogonalLoop=1;jettySize=auto;html=1;" edge="1" parent="1" source="zRIpVrKAjMLuEBCQQrDN-30">
          <mxGeometry relative="1" as="geometry">
            <mxPoint x="156" y="397" as="targetPoint" />
            <Array as="points">
              <mxPoint x="90" y="397" />
              <mxPoint x="90" y="397" />
            </Array>
          </mxGeometry>
        </mxCell>
        <mxCell id="zRIpVrKAjMLuEBCQQrDN-61" style="edgeStyle=orthogonalEdgeStyle;rounded=0;orthogonalLoop=1;jettySize=auto;html=1;" edge="1" parent="1" source="zRIpVrKAjMLuEBCQQrDN-30" target="3nuBFxr9cyL0pnOWT2aG-1">
          <mxGeometry relative="1" as="geometry">
            <Array as="points">
              <mxPoint x="90" y="530" />
              <mxPoint x="90" y="530" />
            </Array>
          </mxGeometry>
        </mxCell>
        <mxCell id="zRIpVrKAjMLuEBCQQrDN-73" style="edgeStyle=orthogonalEdgeStyle;rounded=0;orthogonalLoop=1;jettySize=auto;html=1;" edge="1" parent="1" source="zRIpVrKAjMLuEBCQQrDN-30">
          <mxGeometry relative="1" as="geometry">
            <mxPoint x="150" y="930" as="targetPoint" />
            <Array as="points">
              <mxPoint x="150" y="930" />
            </Array>
          </mxGeometry>
        </mxCell>
        <mxCell id="zRIpVrKAjMLuEBCQQrDN-133" style="edgeStyle=orthogonalEdgeStyle;rounded=0;orthogonalLoop=1;jettySize=auto;html=1;" edge="1" parent="1" source="zRIpVrKAjMLuEBCQQrDN-30">
          <mxGeometry relative="1" as="geometry">
            <mxPoint x="154" y="983" as="targetPoint" />
            <Array as="points">
              <mxPoint x="112" y="983" />
              <mxPoint x="112" y="983" />
            </Array>
          </mxGeometry>
        </mxCell>
        <mxCell id="zRIpVrKAjMLuEBCQQrDN-30" value="" style="points=[];perimeter=orthogonalPerimeter;rounded=0;shadow=0;strokeWidth=1;" vertex="1" parent="1">
          <mxGeometry x="60" y="150" width="10" height="1010" as="geometry" />
        </mxCell>
        <mxCell id="3nuBFxr9cyL0pnOWT2aG-3" value="Opens App" style="verticalAlign=bottom;startArrow=oval;endArrow=block;startSize=8;shadow=0;strokeWidth=1;exitX=0.6;exitY=0.005;exitDx=0;exitDy=0;exitPerimeter=0;" parent="1" target="3nuBFxr9cyL0pnOWT2aG-2" edge="1" source="zRIpVrKAjMLuEBCQQrDN-30">
          <mxGeometry relative="1" as="geometry">
            <mxPoint x="70" y="152" as="sourcePoint" />
          </mxGeometry>
        </mxCell>
        <mxCell id="zRIpVrKAjMLuEBCQQrDN-33" value="Selects period" style="text;html=1;align=center;verticalAlign=middle;resizable=0;points=[];autosize=1;" vertex="1" parent="1">
          <mxGeometry x="65" y="280" width="90" height="20" as="geometry" />
        </mxCell>
        <mxCell id="zRIpVrKAjMLuEBCQQrDN-34" style="edgeStyle=orthogonalEdgeStyle;rounded=0;orthogonalLoop=1;jettySize=auto;html=1;" edge="1" parent="1" source="3nuBFxr9cyL0pnOWT2aG-2" target="3nuBFxr9cyL0pnOWT2aG-5">
          <mxGeometry relative="1" as="geometry">
            <Array as="points">
              <mxPoint x="290" y="320" />
              <mxPoint x="290" y="320" />
            </Array>
          </mxGeometry>
        </mxCell>
        <mxCell id="zRIpVrKAjMLuEBCQQrDN-35" value="Send period value" style="text;html=1;align=center;verticalAlign=middle;resizable=0;points=[];autosize=1;" vertex="1" parent="1">
          <mxGeometry x="195" y="300" width="110" height="20" as="geometry" />
        </mxCell>
        <mxCell id="zRIpVrKAjMLuEBCQQrDN-36" style="edgeStyle=orthogonalEdgeStyle;rounded=0;orthogonalLoop=1;jettySize=auto;html=1;" edge="1" parent="1" source="3nuBFxr9cyL0pnOWT2aG-6" target="zRIpVrKAjMLuEBCQQrDN-19">
          <mxGeometry relative="1" as="geometry">
            <Array as="points">
              <mxPoint x="380" y="340" />
              <mxPoint x="380" y="340" />
            </Array>
          </mxGeometry>
        </mxCell>
        <mxCell id="zRIpVrKAjMLuEBCQQrDN-37" value="&lt;font style=&quot;font-size: 11px&quot;&gt;_handlePeriodSubmit(period)&lt;/font&gt;" style="text;html=1;align=center;verticalAlign=middle;resizable=0;points=[];autosize=1;" vertex="1" parent="1">
          <mxGeometry x="345" y="320" width="160" height="20" as="geometry" />
        </mxCell>
        <mxCell id="zRIpVrKAjMLuEBCQQrDN-39" value="_period = period" style="text;html=1;align=center;verticalAlign=middle;resizable=0;points=[];autosize=1;" vertex="1" parent="1">
          <mxGeometry x="370" y="345" width="100" height="20" as="geometry" />
        </mxCell>
        <mxCell id="zRIpVrKAjMLuEBCQQrDN-40" style="edgeStyle=orthogonalEdgeStyle;rounded=0;orthogonalLoop=1;jettySize=auto;html=1;" edge="1" parent="1" source="3nuBFxr9cyL0pnOWT2aG-6">
          <mxGeometry relative="1" as="geometry">
            <mxPoint x="169" y="210" as="targetPoint" />
            <Array as="points">
              <mxPoint x="169" y="210" />
            </Array>
          </mxGeometry>
        </mxCell>
        <mxCell id="zRIpVrKAjMLuEBCQQrDN-41" value="show select forms, date picker&lt;br&gt;&amp;nbsp;&amp;amp; load data button" style="text;html=1;align=center;verticalAlign=middle;resizable=0;points=[];autosize=1;" vertex="1" parent="1">
          <mxGeometry x="165" y="175" width="180" height="30" as="geometry" />
        </mxCell>
        <mxCell id="zRIpVrKAjMLuEBCQQrDN-42" style="edgeStyle=orthogonalEdgeStyle;rounded=0;orthogonalLoop=1;jettySize=auto;html=1;" edge="1" parent="1" source="3nuBFxr9cyL0pnOWT2aG-6" target="3nuBFxr9cyL0pnOWT2aG-2">
          <mxGeometry relative="1" as="geometry">
            <Array as="points">
              <mxPoint x="300" y="365" />
              <mxPoint x="300" y="365" />
            </Array>
          </mxGeometry>
        </mxCell>
        <mxCell id="zRIpVrKAjMLuEBCQQrDN-43" value="Period SelectForm field&lt;br&gt;value is set" style="text;html=1;align=center;verticalAlign=middle;resizable=0;points=[];autosize=1;" vertex="1" parent="1">
          <mxGeometry x="185" y="330" width="140" height="30" as="geometry" />
        </mxCell>
        <mxCell id="zRIpVrKAjMLuEBCQQrDN-45" value="Selects&lt;br&gt;date range" style="text;html=1;align=center;verticalAlign=middle;resizable=0;points=[];autosize=1;" vertex="1" parent="1">
          <mxGeometry x="75" y="365" width="70" height="30" as="geometry" />
        </mxCell>
        <mxCell id="zRIpVrKAjMLuEBCQQrDN-47" value=":DateRangeSelector" style="shape=umlLifeline;perimeter=lifelinePerimeter;container=1;collapsible=0;recursiveResize=0;rounded=0;shadow=0;strokeWidth=1;" vertex="1" parent="1">
          <mxGeometry x="590" y="80" width="110" height="1120" as="geometry" />
        </mxCell>
        <mxCell id="zRIpVrKAjMLuEBCQQrDN-48" value="" style="points=[];perimeter=orthogonalPerimeter;rounded=0;shadow=0;strokeWidth=1;" vertex="1" parent="zRIpVrKAjMLuEBCQQrDN-47">
          <mxGeometry x="50" y="340" width="10" height="110" as="geometry" />
        </mxCell>
        <mxCell id="zRIpVrKAjMLuEBCQQrDN-50" value="Send picked dates" style="text;html=1;align=center;verticalAlign=middle;resizable=0;points=[];autosize=1;" vertex="1" parent="1">
          <mxGeometry x="200" y="410" width="110" height="20" as="geometry" />
        </mxCell>
        <mxCell id="zRIpVrKAjMLuEBCQQrDN-51" style="edgeStyle=orthogonalEdgeStyle;rounded=0;orthogonalLoop=1;jettySize=auto;html=1;" edge="1" parent="1" source="3nuBFxr9cyL0pnOWT2aG-6" target="zRIpVrKAjMLuEBCQQrDN-48">
          <mxGeometry relative="1" as="geometry">
            <Array as="points">
              <mxPoint x="430" y="445" />
              <mxPoint x="430" y="445" />
            </Array>
          </mxGeometry>
        </mxCell>
        <mxCell id="zRIpVrKAjMLuEBCQQrDN-52" value="_handleDateSubmit(dates)" style="text;html=1;align=center;verticalAlign=middle;resizable=0;points=[];autosize=1;" vertex="1" parent="1">
          <mxGeometry x="425" y="420" width="160" height="20" as="geometry" />
        </mxCell>
        <mxCell id="zRIpVrKAjMLuEBCQQrDN-55" style="edgeStyle=orthogonalEdgeStyle;rounded=0;orthogonalLoop=1;jettySize=auto;html=1;" edge="1" parent="1" source="zRIpVrKAjMLuEBCQQrDN-53" target="3nuBFxr9cyL0pnOWT2aG-5">
          <mxGeometry relative="1" as="geometry">
            <Array as="points">
              <mxPoint x="400" y="365" />
              <mxPoint x="400" y="365" />
            </Array>
          </mxGeometry>
        </mxCell>
        <mxCell id="zRIpVrKAjMLuEBCQQrDN-53" value="" style="points=[];perimeter=orthogonalPerimeter;rounded=0;shadow=0;strokeWidth=1;" vertex="1" parent="1">
          <mxGeometry x="495" y="335" width="10" height="60" as="geometry" />
        </mxCell>
        <mxCell id="zRIpVrKAjMLuEBCQQrDN-56" style="edgeStyle=orthogonalEdgeStyle;rounded=0;orthogonalLoop=1;jettySize=auto;html=1;" edge="1" parent="1" source="zRIpVrKAjMLuEBCQQrDN-48" target="3nuBFxr9cyL0pnOWT2aG-5">
          <mxGeometry relative="1" as="geometry">
            <Array as="points">
              <mxPoint x="590" y="500" />
              <mxPoint x="590" y="500" />
            </Array>
          </mxGeometry>
        </mxCell>
        <mxCell id="zRIpVrKAjMLuEBCQQrDN-57" value="_dates = dates" style="text;html=1;align=center;verticalAlign=middle;resizable=0;points=[];autosize=1;" vertex="1" parent="1">
          <mxGeometry x="390" y="480" width="90" height="20" as="geometry" />
        </mxCell>
        <mxCell id="zRIpVrKAjMLuEBCQQrDN-58" style="edgeStyle=orthogonalEdgeStyle;rounded=0;orthogonalLoop=1;jettySize=auto;html=1;" edge="1" parent="1" source="3nuBFxr9cyL0pnOWT2aG-6" target="3nuBFxr9cyL0pnOWT2aG-2">
          <mxGeometry relative="1" as="geometry">
            <Array as="points">
              <mxPoint x="210" y="500" />
              <mxPoint x="210" y="500" />
            </Array>
          </mxGeometry>
        </mxCell>
        <mxCell id="zRIpVrKAjMLuEBCQQrDN-59" value="Picked date range&lt;br&gt;&amp;nbsp;is show on the main screen" style="text;html=1;align=center;verticalAlign=middle;resizable=0;points=[];autosize=1;" vertex="1" parent="1">
          <mxGeometry x="175" y="470" width="160" height="30" as="geometry" />
        </mxCell>
        <mxCell id="zRIpVrKAjMLuEBCQQrDN-62" value="&lt;font style=&quot;font-size: 11px&quot;&gt;Presses &lt;br&gt;Load Data button&lt;/font&gt;" style="text;html=1;align=center;verticalAlign=middle;resizable=0;points=[];autosize=1;" vertex="1" parent="1">
          <mxGeometry x="65" y="490" width="100" height="40" as="geometry" />
        </mxCell>
        <mxCell id="zRIpVrKAjMLuEBCQQrDN-63" style="edgeStyle=orthogonalEdgeStyle;rounded=0;orthogonalLoop=1;jettySize=auto;html=1;" edge="1" parent="1" source="3nuBFxr9cyL0pnOWT2aG-2" target="3nuBFxr9cyL0pnOWT2aG-6">
          <mxGeometry relative="1" as="geometry">
            <Array as="points">
              <mxPoint x="300" y="550" />
              <mxPoint x="300" y="550" />
            </Array>
          </mxGeometry>
        </mxCell>
        <mxCell id="zRIpVrKAjMLuEBCQQrDN-65" style="edgeStyle=orthogonalEdgeStyle;rounded=0;orthogonalLoop=1;jettySize=auto;html=1;" edge="1" parent="1" source="3nuBFxr9cyL0pnOWT2aG-2">
          <mxGeometry relative="1" as="geometry">
            <mxPoint x="344" y="435" as="targetPoint" />
            <Array as="points">
              <mxPoint x="220" y="435" />
              <mxPoint x="220" y="435" />
            </Array>
          </mxGeometry>
        </mxCell>
        <mxCell id="zRIpVrKAjMLuEBCQQrDN-66" value=":StockDataCollector" style="shape=umlLifeline;perimeter=lifelinePerimeter;container=1;collapsible=0;recursiveResize=0;rounded=0;shadow=0;strokeWidth=1;" vertex="1" parent="1">
          <mxGeometry x="1110" y="80" width="120" height="1120" as="geometry" />
        </mxCell>
        <mxCell id="zRIpVrKAjMLuEBCQQrDN-67" value="" style="points=[];perimeter=orthogonalPerimeter;rounded=0;shadow=0;strokeWidth=1;" vertex="1" parent="zRIpVrKAjMLuEBCQQrDN-66">
          <mxGeometry x="55" y="510" width="10" height="70" as="geometry" />
        </mxCell>
        <mxCell id="zRIpVrKAjMLuEBCQQrDN-68" value="_handleFABPress()" style="text;html=1;align=center;verticalAlign=middle;resizable=0;points=[];autosize=1;" vertex="1" parent="1">
          <mxGeometry x="195" y="530" width="120" height="20" as="geometry" />
        </mxCell>
        <mxCell id="zRIpVrKAjMLuEBCQQrDN-70" value="Init DetailsScreen with default options" style="text;html=1;align=center;verticalAlign=middle;resizable=0;points=[];autosize=1;" vertex="1" parent="1">
          <mxGeometry x="805" y="690" width="220" height="20" as="geometry" />
        </mxCell>
        <mxCell id="zRIpVrKAjMLuEBCQQrDN-72" value="Display USD price and SMA indicators as default" style="text;html=1;align=center;verticalAlign=middle;resizable=0;points=[];autosize=1;" vertex="1" parent="1">
          <mxGeometry x="590" y="850" width="270" height="20" as="geometry" />
        </mxCell>
        <mxCell id="zRIpVrKAjMLuEBCQQrDN-74" value="Unselects &lt;br&gt;USD price" style="text;html=1;align=center;verticalAlign=middle;resizable=0;points=[];autosize=1;" vertex="1" parent="1">
          <mxGeometry x="75" y="900" width="70" height="30" as="geometry" />
        </mxCell>
        <mxCell id="zRIpVrKAjMLuEBCQQrDN-76" value="handleSelectedChoices()" style="text;html=1;align=center;verticalAlign=middle;resizable=0;points=[];autosize=1;" vertex="1" parent="1">
          <mxGeometry x="590" y="890" width="150" height="20" as="geometry" />
        </mxCell>
        <mxCell id="zRIpVrKAjMLuEBCQQrDN-77" value=":Formulae" style="shape=umlLifeline;perimeter=lifelinePerimeter;container=1;collapsible=0;recursiveResize=0;rounded=0;shadow=0;strokeWidth=1;" vertex="1" parent="1">
          <mxGeometry x="1440" y="80" width="100" height="1120" as="geometry" />
        </mxCell>
        <mxCell id="zRIpVrKAjMLuEBCQQrDN-78" value="" style="points=[];perimeter=orthogonalPerimeter;rounded=0;shadow=0;strokeWidth=1;" vertex="1" parent="zRIpVrKAjMLuEBCQQrDN-77">
          <mxGeometry x="45" y="630" width="10" height="90" as="geometry" />
        </mxCell>
        <mxCell id="zRIpVrKAjMLuEBCQQrDN-139" value="" style="points=[];perimeter=orthogonalPerimeter;rounded=0;shadow=0;strokeWidth=1;" vertex="1" parent="zRIpVrKAjMLuEBCQQrDN-77">
          <mxGeometry x="45" y="900" width="10" height="90" as="geometry" />
        </mxCell>
        <mxCell id="zRIpVrKAjMLuEBCQQrDN-80" value="compute default&lt;br&gt;&amp;nbsp;indicators(USD &amp;amp; SMA)" style="text;html=1;align=center;verticalAlign=middle;resizable=0;points=[];autosize=1;" vertex="1" parent="1">
          <mxGeometry x="1335" y="695" width="140" height="30" as="geometry" />
        </mxCell>
        <mxCell id="zRIpVrKAjMLuEBCQQrDN-82" value=":StockDataProvider" style="shape=umlLifeline;perimeter=lifelinePerimeter;container=1;collapsible=0;recursiveResize=0;rounded=0;shadow=0;strokeWidth=1;" vertex="1" parent="1">
          <mxGeometry x="740" y="80" width="110" height="1120" as="geometry" />
        </mxCell>
        <mxCell id="zRIpVrKAjMLuEBCQQrDN-83" value="" style="points=[];perimeter=orthogonalPerimeter;rounded=0;shadow=0;strokeWidth=1;" vertex="1" parent="zRIpVrKAjMLuEBCQQrDN-82">
          <mxGeometry x="50" y="450" width="10" height="140" as="geometry" />
        </mxCell>
        <mxCell id="zRIpVrKAjMLuEBCQQrDN-84" style="edgeStyle=orthogonalEdgeStyle;rounded=0;orthogonalLoop=1;jettySize=auto;html=1;" edge="1" parent="1" source="3nuBFxr9cyL0pnOWT2aG-6">
          <mxGeometry relative="1" as="geometry">
            <mxPoint x="791" y="560" as="targetPoint" />
            <Array as="points">
              <mxPoint x="791" y="560" />
            </Array>
          </mxGeometry>
        </mxCell>
        <mxCell id="zRIpVrKAjMLuEBCQQrDN-85" value="getPrices(ticker, startStamp, endStamp)" style="text;html=1;align=center;verticalAlign=middle;resizable=0;points=[];autosize=1;" vertex="1" parent="1">
          <mxGeometry x="450" y="540" width="230" height="20" as="geometry" />
        </mxCell>
        <mxCell id="zRIpVrKAjMLuEBCQQrDN-86" style="edgeStyle=orthogonalEdgeStyle;rounded=0;orthogonalLoop=1;jettySize=auto;html=1;" edge="1" parent="1" source="zRIpVrKAjMLuEBCQQrDN-83">
          <mxGeometry relative="1" as="geometry">
            <mxPoint x="359" y="650" as="targetPoint" />
            <Array as="points">
              <mxPoint x="359" y="650" />
            </Array>
          </mxGeometry>
        </mxCell>
        <mxCell id="zRIpVrKAjMLuEBCQQrDN-89" value="return list of stocks" style="text;html=1;align=center;verticalAlign=middle;resizable=0;points=[];autosize=1;" vertex="1" parent="1">
          <mxGeometry x="505" y="630" width="120" height="20" as="geometry" />
        </mxCell>
        <mxCell id="zRIpVrKAjMLuEBCQQrDN-90" value=":DBManager" style="shape=umlLifeline;perimeter=lifelinePerimeter;container=1;collapsible=0;recursiveResize=0;rounded=0;shadow=0;strokeWidth=1;" vertex="1" parent="1">
          <mxGeometry x="970" y="80" width="100" height="1120" as="geometry" />
        </mxCell>
        <mxCell id="zRIpVrKAjMLuEBCQQrDN-91" value="" style="points=[];perimeter=orthogonalPerimeter;rounded=0;shadow=0;strokeWidth=1;" vertex="1" parent="zRIpVrKAjMLuEBCQQrDN-90">
          <mxGeometry x="45" y="460" width="10" height="90" as="geometry" />
        </mxCell>
        <mxCell id="zRIpVrKAjMLuEBCQQrDN-92" style="edgeStyle=orthogonalEdgeStyle;rounded=0;orthogonalLoop=1;jettySize=auto;html=1;" edge="1" parent="1" source="zRIpVrKAjMLuEBCQQrDN-83" target="zRIpVrKAjMLuEBCQQrDN-90">
          <mxGeometry relative="1" as="geometry">
            <Array as="points">
              <mxPoint x="820" y="560" />
              <mxPoint x="820" y="560" />
            </Array>
          </mxGeometry>
        </mxCell>
        <mxCell id="zRIpVrKAjMLuEBCQQrDN-93" value="getFomDBOrNull&lt;br&gt;(ticker, startStamp, endStamp)" style="text;html=1;align=center;verticalAlign=middle;resizable=0;points=[];autosize=1;" vertex="1" parent="1">
          <mxGeometry x="810" y="525" width="180" height="30" as="geometry" />
        </mxCell>
        <mxCell id="zRIpVrKAjMLuEBCQQrDN-94" style="edgeStyle=orthogonalEdgeStyle;rounded=0;orthogonalLoop=1;jettySize=auto;html=1;" edge="1" parent="1" source="zRIpVrKAjMLuEBCQQrDN-91">
          <mxGeometry relative="1" as="geometry">
            <mxPoint x="804" y="590" as="targetPoint" />
            <Array as="points">
              <mxPoint x="804" y="590" />
            </Array>
          </mxGeometry>
        </mxCell>
        <mxCell id="zRIpVrKAjMLuEBCQQrDN-95" value="returns list of cached stocks" style="text;html=1;align=center;verticalAlign=middle;resizable=0;points=[];autosize=1;" vertex="1" parent="1">
          <mxGeometry x="830" y="570" width="160" height="20" as="geometry" />
        </mxCell>
        <mxCell id="zRIpVrKAjMLuEBCQQrDN-98" value="getPricesAsJSON(ticker, startStamp, endStamp)" style="text;html=1;align=center;verticalAlign=middle;resizable=0;points=[];autosize=1;" vertex="1" parent="1">
          <mxGeometry x="850" y="600" width="270" height="20" as="geometry" />
        </mxCell>
        <mxCell id="zRIpVrKAjMLuEBCQQrDN-99" style="edgeStyle=orthogonalEdgeStyle;rounded=0;orthogonalLoop=1;jettySize=auto;html=1;entryX=1.3;entryY=0.641;entryDx=0;entryDy=0;entryPerimeter=0;" edge="1" parent="1" source="zRIpVrKAjMLuEBCQQrDN-67" target="zRIpVrKAjMLuEBCQQrDN-83">
          <mxGeometry relative="1" as="geometry">
            <Array as="points">
              <mxPoint x="1070" y="645" />
              <mxPoint x="1070" y="645" />
            </Array>
          </mxGeometry>
        </mxCell>
        <mxCell id="zRIpVrKAjMLuEBCQQrDN-104" style="edgeStyle=orthogonalEdgeStyle;rounded=0;orthogonalLoop=1;jettySize=auto;html=1;entryX=-0.067;entryY=0.429;entryDx=0;entryDy=0;entryPerimeter=0;" edge="1" parent="1" source="zRIpVrKAjMLuEBCQQrDN-83" target="zRIpVrKAjMLuEBCQQrDN-67">
          <mxGeometry relative="1" as="geometry">
            <Array as="points">
              <mxPoint x="940" y="620" />
              <mxPoint x="940" y="620" />
            </Array>
          </mxGeometry>
        </mxCell>
        <mxCell id="zRIpVrKAjMLuEBCQQrDN-101" value="returns list of stocks" style="text;html=1;align=center;verticalAlign=middle;resizable=0;points=[];autosize=1;" vertex="1" parent="1">
          <mxGeometry x="930" y="630" width="120" height="20" as="geometry" />
        </mxCell>
        <mxCell id="zRIpVrKAjMLuEBCQQrDN-105" value=":DetailsScreen" style="shape=umlLifeline;perimeter=lifelinePerimeter;container=1;collapsible=0;recursiveResize=0;rounded=0;shadow=0;strokeWidth=1;" vertex="1" parent="1">
          <mxGeometry x="1275" y="80" width="100" height="1120" as="geometry" />
        </mxCell>
        <mxCell id="zRIpVrKAjMLuEBCQQrDN-106" value="" style="points=[];perimeter=orthogonalPerimeter;rounded=0;shadow=0;strokeWidth=1;" vertex="1" parent="zRIpVrKAjMLuEBCQQrDN-105">
          <mxGeometry x="45" y="610" width="10" height="490" as="geometry" />
        </mxCell>
        <mxCell id="zRIpVrKAjMLuEBCQQrDN-107" style="edgeStyle=orthogonalEdgeStyle;rounded=0;orthogonalLoop=1;jettySize=auto;html=1;" edge="1" parent="1" source="3nuBFxr9cyL0pnOWT2aG-6">
          <mxGeometry relative="1" as="geometry">
            <mxPoint x="1315" y="708" as="targetPoint" />
            <Array as="points">
              <mxPoint x="610" y="708" />
              <mxPoint x="610" y="708" />
            </Array>
          </mxGeometry>
        </mxCell>
        <mxCell id="zRIpVrKAjMLuEBCQQrDN-112" style="edgeStyle=orthogonalEdgeStyle;rounded=0;orthogonalLoop=1;jettySize=auto;html=1;entryX=-0.067;entryY=0.259;entryDx=0;entryDy=0;entryPerimeter=0;" edge="1" parent="1" source="zRIpVrKAjMLuEBCQQrDN-106" target="zRIpVrKAjMLuEBCQQrDN-78">
          <mxGeometry relative="1" as="geometry">
            <Array as="points">
              <mxPoint x="1370" y="733" />
              <mxPoint x="1370" y="733" />
            </Array>
          </mxGeometry>
        </mxCell>
        <mxCell id="zRIpVrKAjMLuEBCQQrDN-113" style="edgeStyle=orthogonalEdgeStyle;rounded=0;orthogonalLoop=1;jettySize=auto;html=1;" edge="1" parent="1" source="zRIpVrKAjMLuEBCQQrDN-78">
          <mxGeometry relative="1" as="geometry">
            <mxPoint x="1335" y="769" as="targetPoint" />
            <Array as="points">
              <mxPoint x="1450" y="769" />
              <mxPoint x="1450" y="769" />
            </Array>
          </mxGeometry>
        </mxCell>
        <mxCell id="zRIpVrKAjMLuEBCQQrDN-114" value="return indicator values" style="text;html=1;align=center;verticalAlign=middle;resizable=0;points=[];autosize=1;" vertex="1" parent="1">
          <mxGeometry x="1340" y="750" width="130" height="20" as="geometry" />
        </mxCell>
        <mxCell id="zRIpVrKAjMLuEBCQQrDN-121" value=":StockChart" style="shape=umlLifeline;perimeter=lifelinePerimeter;container=1;collapsible=0;recursiveResize=0;rounded=0;shadow=0;strokeWidth=1;" vertex="1" parent="1">
          <mxGeometry x="1610" y="80" width="100" height="1120" as="geometry" />
        </mxCell>
        <mxCell id="zRIpVrKAjMLuEBCQQrDN-122" value="" style="points=[];perimeter=orthogonalPerimeter;rounded=0;shadow=0;strokeWidth=1;" vertex="1" parent="zRIpVrKAjMLuEBCQQrDN-121">
          <mxGeometry x="45" y="720" width="10" height="90" as="geometry" />
        </mxCell>
        <mxCell id="zRIpVrKAjMLuEBCQQrDN-144" value="" style="points=[];perimeter=orthogonalPerimeter;rounded=0;shadow=0;strokeWidth=1;" vertex="1" parent="zRIpVrKAjMLuEBCQQrDN-121">
          <mxGeometry x="45" y="980" width="10" height="90" as="geometry" />
        </mxCell>
        <mxCell id="zRIpVrKAjMLuEBCQQrDN-123" style="edgeStyle=orthogonalEdgeStyle;rounded=0;orthogonalLoop=1;jettySize=auto;html=1;entryX=0;entryY=0.193;entryDx=0;entryDy=0;entryPerimeter=0;" edge="1" parent="1" source="zRIpVrKAjMLuEBCQQrDN-106" target="zRIpVrKAjMLuEBCQQrDN-122">
          <mxGeometry relative="1" as="geometry">
            <Array as="points">
              <mxPoint x="1470" y="817" />
              <mxPoint x="1470" y="817" />
            </Array>
          </mxGeometry>
        </mxCell>
        <mxCell id="zRIpVrKAjMLuEBCQQrDN-124" value="Init stock chart with the computed indicators" style="text;html=1;align=center;verticalAlign=middle;resizable=0;points=[];autosize=1;" vertex="1" parent="1">
          <mxGeometry x="1390" y="800" width="250" height="20" as="geometry" />
        </mxCell>
        <mxCell id="zRIpVrKAjMLuEBCQQrDN-127" style="edgeStyle=orthogonalEdgeStyle;rounded=0;orthogonalLoop=1;jettySize=auto;html=1;" edge="1" parent="1" source="zRIpVrKAjMLuEBCQQrDN-106" target="3nuBFxr9cyL0pnOWT2aG-1">
          <mxGeometry relative="1" as="geometry">
            <mxPoint x="170" y="870" as="targetPoint" />
            <Array as="points">
              <mxPoint x="460" y="845" />
              <mxPoint x="460" y="845" />
            </Array>
          </mxGeometry>
        </mxCell>
        <mxCell id="zRIpVrKAjMLuEBCQQrDN-129" style="edgeStyle=orthogonalEdgeStyle;rounded=0;orthogonalLoop=1;jettySize=auto;html=1;" edge="1" parent="1" source="3nuBFxr9cyL0pnOWT2aG-2">
          <mxGeometry relative="1" as="geometry">
            <mxPoint x="1320" y="911" as="targetPoint" />
            <Array as="points">
              <mxPoint x="450" y="911" />
              <mxPoint x="450" y="911" />
            </Array>
          </mxGeometry>
        </mxCell>
        <mxCell id="zRIpVrKAjMLuEBCQQrDN-130" style="edgeStyle=orthogonalEdgeStyle;rounded=0;orthogonalLoop=1;jettySize=auto;html=1;" edge="1" parent="1" source="zRIpVrKAjMLuEBCQQrDN-106">
          <mxGeometry relative="1" as="geometry">
            <mxPoint x="168" y="940" as="targetPoint" />
            <Array as="points">
              <mxPoint x="1040" y="940" />
              <mxPoint x="1040" y="940" />
            </Array>
          </mxGeometry>
        </mxCell>
        <mxCell id="zRIpVrKAjMLuEBCQQrDN-131" value="Display SMA" style="text;html=1;align=center;verticalAlign=middle;resizable=0;points=[];autosize=1;" vertex="1" parent="1">
          <mxGeometry x="650" y="920" width="80" height="20" as="geometry" />
        </mxCell>
        <mxCell id="zRIpVrKAjMLuEBCQQrDN-134" value="Selects&lt;br&gt;EMA" style="text;html=1;align=center;verticalAlign=middle;resizable=0;points=[];autosize=1;" vertex="1" parent="1">
          <mxGeometry x="80" y="950" width="50" height="30" as="geometry" />
        </mxCell>
        <mxCell id="zRIpVrKAjMLuEBCQQrDN-135" style="edgeStyle=orthogonalEdgeStyle;rounded=0;orthogonalLoop=1;jettySize=auto;html=1;" edge="1" parent="1" source="3nuBFxr9cyL0pnOWT2aG-2">
          <mxGeometry relative="1" as="geometry">
            <mxPoint x="1320" y="990" as="targetPoint" />
            <Array as="points">
              <mxPoint x="1320" y="990" />
            </Array>
          </mxGeometry>
        </mxCell>
        <mxCell id="zRIpVrKAjMLuEBCQQrDN-136" value="handleSelectedChoices()" style="text;html=1;align=center;verticalAlign=middle;resizable=0;points=[];autosize=1;" vertex="1" parent="1">
          <mxGeometry x="590" y="970" width="150" height="20" as="geometry" />
        </mxCell>
        <mxCell id="zRIpVrKAjMLuEBCQQrDN-137" style="edgeStyle=orthogonalEdgeStyle;rounded=0;orthogonalLoop=1;jettySize=auto;html=1;" edge="1" parent="1" source="zRIpVrKAjMLuEBCQQrDN-122">
          <mxGeometry relative="1" as="geometry">
            <mxPoint x="1332" y="859" as="targetPoint" />
            <Array as="points">
              <mxPoint x="1580" y="859" />
              <mxPoint x="1580" y="859" />
            </Array>
          </mxGeometry>
        </mxCell>
        <mxCell id="zRIpVrKAjMLuEBCQQrDN-138" value="generate indicators graphs" style="text;html=1;align=center;verticalAlign=middle;resizable=0;points=[];autosize=1;" vertex="1" parent="1">
          <mxGeometry x="1430" y="840" width="160" height="20" as="geometry" />
        </mxCell>
        <mxCell id="zRIpVrKAjMLuEBCQQrDN-140" style="edgeStyle=orthogonalEdgeStyle;rounded=0;orthogonalLoop=1;jettySize=auto;html=1;" edge="1" parent="1" source="zRIpVrKAjMLuEBCQQrDN-106">
          <mxGeometry relative="1" as="geometry">
            <mxPoint x="1486" y="1010" as="targetPoint" />
            <Array as="points">
              <mxPoint x="1486" y="1010" />
            </Array>
          </mxGeometry>
        </mxCell>
        <mxCell id="zRIpVrKAjMLuEBCQQrDN-141" value="compute EMA" style="text;html=1;align=center;verticalAlign=middle;resizable=0;points=[];autosize=1;" vertex="1" parent="1">
          <mxGeometry x="1360" y="990" width="90" height="20" as="geometry" />
        </mxCell>
        <mxCell id="zRIpVrKAjMLuEBCQQrDN-142" style="edgeStyle=orthogonalEdgeStyle;rounded=0;orthogonalLoop=1;jettySize=auto;html=1;" edge="1" parent="1" source="zRIpVrKAjMLuEBCQQrDN-139">
          <mxGeometry relative="1" as="geometry">
            <mxPoint x="1332" y="1049" as="targetPoint" />
            <Array as="points">
              <mxPoint x="1450" y="1049" />
              <mxPoint x="1450" y="1049" />
            </Array>
          </mxGeometry>
        </mxCell>
        <mxCell id="zRIpVrKAjMLuEBCQQrDN-143" value="return indicator values" style="text;html=1;align=center;verticalAlign=middle;resizable=0;points=[];autosize=1;" vertex="1" parent="1">
          <mxGeometry x="1345" y="1030" width="130" height="20" as="geometry" />
        </mxCell>
        <mxCell id="zRIpVrKAjMLuEBCQQrDN-145" style="edgeStyle=orthogonalEdgeStyle;rounded=0;orthogonalLoop=1;jettySize=auto;html=1;entryX=-0.4;entryY=0.341;entryDx=0;entryDy=0;entryPerimeter=0;" edge="1" parent="1" source="zRIpVrKAjMLuEBCQQrDN-106" target="zRIpVrKAjMLuEBCQQrDN-144">
          <mxGeometry relative="1" as="geometry">
            <Array as="points">
              <mxPoint x="1420" y="1091" />
              <mxPoint x="1420" y="1091" />
            </Array>
          </mxGeometry>
        </mxCell>
        <mxCell id="zRIpVrKAjMLuEBCQQrDN-146" value="add EMA indicator to the stock graph" style="text;html=1;align=center;verticalAlign=middle;resizable=0;points=[];autosize=1;" vertex="1" parent="1">
          <mxGeometry x="1400" y="1070" width="210" height="20" as="geometry" />
        </mxCell>
        <mxCell id="zRIpVrKAjMLuEBCQQrDN-147" style="edgeStyle=orthogonalEdgeStyle;rounded=0;orthogonalLoop=1;jettySize=auto;html=1;entryX=1.633;entryY=0.888;entryDx=0;entryDy=0;entryPerimeter=0;" edge="1" parent="1" source="zRIpVrKAjMLuEBCQQrDN-144" target="zRIpVrKAjMLuEBCQQrDN-106">
          <mxGeometry relative="1" as="geometry">
            <Array as="points">
              <mxPoint x="1580" y="1125" />
              <mxPoint x="1580" y="1125" />
            </Array>
          </mxGeometry>
        </mxCell>
        <mxCell id="zRIpVrKAjMLuEBCQQrDN-148" value="generate EMA graph" style="text;html=1;align=center;verticalAlign=middle;resizable=0;points=[];autosize=1;" vertex="1" parent="1">
          <mxGeometry x="1430" y="1100" width="130" height="20" as="geometry" />
        </mxCell>
        <mxCell id="zRIpVrKAjMLuEBCQQrDN-149" style="edgeStyle=orthogonalEdgeStyle;rounded=0;orthogonalLoop=1;jettySize=auto;html=1;entryX=1.733;entryY=0.981;entryDx=0;entryDy=0;entryPerimeter=0;" edge="1" parent="1" source="zRIpVrKAjMLuEBCQQrDN-106" target="3nuBFxr9cyL0pnOWT2aG-2">
          <mxGeometry relative="1" as="geometry">
            <mxPoint x="220" y="1060" as="targetPoint" />
            <Array as="points">
              <mxPoint x="220" y="1130" />
            </Array>
          </mxGeometry>
        </mxCell>
        <mxCell id="zRIpVrKAjMLuEBCQQrDN-150" value="Display EMA &amp;amp; SMA" style="text;html=1;align=center;verticalAlign=middle;resizable=0;points=[];autosize=1;" vertex="1" parent="1">
          <mxGeometry x="720" y="1110" width="120" height="20" as="geometry" />
        </mxCell>
      </root>
    </mxGraphModel>
  </diagram>
</mxfile>
